# xmcd
#
# Track frame offsets: 
#        150
#        12970
#        26248
#        38652
#        50708
#        62877
#        75665
#        87077
#        98592
#        109073
#        122679
#        132823
#        145620
#        158726
#        170776
#        182987
#        195015
#        210332
#        221875
#        232369
#
# Disc length: 3290 seconds
#
# Revision: 0
# Processed by: cddbd v1.5.2PL0 Copyright (c) Steve Scherf et al.
# Submitted via: ExactAudioCopy v1.3
#
DISCID=140cd814
DTITLE=Various Artist - Harmonica Blues - CD2
DYEAR=2018
DGENRE=Blues
TTITLE0=Hoochie Coochie Man - Muddy Waters
TTITLE1=I Wish You Would - Billy Boy Arnold
TTITLE2=I Got To Go - Little Walter
TTITLE3=You're Got Me Crying - Jimmy Reed
TTITLE4=I Got Love If You Want It - Slim Harpo
TTITLE5=Cut That Out - Junior Wells
TTITLE6=Sitting On Top Of The World - Howlin' Wolf
TTITLE7=Patrol Blues - Lazy Lester
TTITLE8=Ain't That Lovin' You Baby - Jimmy Reed
TTITLE9=Someday Baby Blues - Sleepy John  Estes
TTITLE10=Mean Ole Frisco - Brownie McGhee
TTITLE11=The Thing To Do - Eddie Burns
TTITLE12=Fannie Mae - Buster Brown
TTITLE13=It Must Have Been The Devil - Otis Spann
TTITLE14=Big Boss Man - Frank Frost with The Night Hawks
TTITLE15=It's Too Late Brother - Little Walter
TTITLE16=I'm Crazy 'Bout My Baby - Sonny Terry and Brownie McGhee
TTITLE17=Don't Start Me To Talkin' - Sonny Boy Williamson
TTITLE18=Cha Cha Cha In Blue - Junior Wells
TTITLE19=I'll Be Around - Howlin' Wolf
EXTD=
EXTT0=
EXTT1=
EXTT2=
EXTT3=
EXTT4=
EXTT5=
EXTT6=
EXTT7=
EXTT8=
EXTT9=
EXTT10=
EXTT11=
EXTT12=
EXTT13=
EXTT14=
EXTT15=
EXTT16=
EXTT17=
EXTT18=
EXTT19=
PLAYORDER=
